#tb 0: 1/37800
#media_type 0: audio
#codec_id 0: pcm_s16le
#sample_rate 0: 37800
#channel_layout_name 0: stereo
0,          0,          0,     2016,     8064, 0xa307ed8c
0,       2016,       2016,     2016,     8064, 0xd2551927
0,       4032,       4032,     2016,     8064, 0x3264a799
0,       6048,       6048,     2016,     8064, 0x75da1393
0,       8064,       8064,     2016,     8064, 0x68665f59
0,      10080,      10080,     2016,     8064, 0xaf266a18
0,      12096,      12096,     2016,     8064, 0x4d4b69fd
0,      14112,      14112,     2016,     8064, 0x129d7e17
0,      16128,      16128,     2016,     8064, 0x78c56725
0,      18144,      18144,     2016,     8064, 0x59902cf1
0,      20160,      20160,     2016,     8064, 0x6e699c87
0,      22176,      22176,     2016,     8064, 0xc30692d7
0,      24192,      24192,     2016,     8064, 0x29c043e5
0,      26208,      26208,     2016,     8064, 0x61907704
0,      28224,      28224,     2016,     8064, 0xf9210630
0,      30240,      30240,     2016,     8064, 0xc0bdda08
0,      32256,      32256,     2016,     8064, 0x6171b96d
0,      34272,      34272,     2016,     8064, 0x082947cf
0,      36288,      36288,     2016,     8064, 0xf7bbf1ce
0,      38304,      38304,     2016,     8064, 0xe50e4436
0,      40320,      40320,     2016,     8064, 0x2a860844
0,      42336,      42336,     2016,     8064, 0xedcb502c
0,      44352,      44352,     2016,     8064, 0x448e3c7f
0,      46368,      46368,     2016,     8064, 0xf782f366
0,      48384,      48384,     2016,     8064, 0xf57f66a5
0,      50400,      50400,     2016,     8064, 0xdcc36939
0,      52416,      52416,     2016,     8064, 0x34959d99
0,      54432,      54432,     2016,     8064, 0xa5c20433
0,      56448,      56448,     2016,     8064, 0xf1364e9b
0,      58464,      58464,     2016,     8064, 0x232fe9c7
0,      60480,      60480,     2016,     8064, 0xdc068d5a
0,      62496,      62496,     2016,     8064, 0x4962e812
0,      64512,      64512,     2016,     8064, 0x36a6709b
0,      66528,      66528,     2016,     8064, 0xa2837bd8
0,      68544,      68544,     2016,     8064, 0x68612ddb
0,      70560,      70560,     2016,     8064, 0x8d76d1cb
0,      72576,      72576,     2016,     8064, 0x7707cfc7
